<svg width="40" height="40" viewBox="0 0 40 40" fill="none" xmlns="http://www.w3.org/2000/svg">
<path d="M13.812 31.1713L5.17484 18.4102C4.5614 17.4861 4.78273 16.3157 5.69128 15.6793C6.59699 15.058 7.76087 15.2781 8.37431 16.2023L13.7638 24.153C13.9448 23.7676 14.1408 23.385 14.3816 23.011L6.65991 11.6197C6.04647 10.6955 6.2678 9.52513 7.16143 8.88596C8.08206 8.26744 9.24594 8.48754 9.87431 9.41453L17.0038 19.9323C17.2873 19.6595 17.5827 19.4046 17.8932 19.1524L10.1502 7.71051C9.51899 6.79852 9.74032 5.62814 10.6638 4.99462C11.5873 4.3611 12.7362 4.57837 13.3646 5.50536L21.1922 17.0721C21.5779 16.9119 21.9552 16.7968 22.3324 16.6816L15.49 6.60668C14.8738 5.69751 15.0979 4.51212 15.9887 3.88796C16.9094 3.26945 18.0732 3.48955 18.7044 4.40153L27.8371 17.8935C28.0908 18.2679 28.3203 18.2802 28.5008 18.1434C28.6755 18.0366 28.7479 17.8171 28.6753 17.3838L27.7629 12.2379C27.5472 10.845 27.8567 9.86228 28.9095 9.36201C29.811 8.92637 30.7646 9.27766 31.2324 10.2365C31.6455 11.0761 32.2678 13.2608 32.7664 14.9559C33.4854 17.2832 34.7151 21.3234 34.5605 24.5113C34.6192 28.5321 33.0783 31.6132 29.4761 34.0714C24.1988 37.7048 17.7692 36.9707 13.812 31.1713Z" fill="#0099FF"/>
</svg>
